<?xml version="1.0" ?>
<!-- Uploaded to: SVG Repo, www.svgrepo.com, Generator: SVG Repo Mixer Tools -->
<svg width="800px" height="800px" viewBox="0 0 512 512" data-name="Layer 1" id="Layer_1"
    xmlns="http://www.w3.org/2000/svg">
    <defs>
        <style>
            .cls-1 {
                fill: none;
                stroke: #bebdb4;
                stroke-linecap: round;
                stroke-linejoin: round;
                stroke-width: 20px;
            }

            .cls-2 {
                fill: #bebdb4;
            }
        </style>
    </defs>
    <title />
    <path class="cls-1"
        d="M300.57,305.6h37.22A33.59,33.59,0,0,0,371.38,272V260.64c0-63.77-51.2-116.42-115-116.64A115.38,115.38,0,0,0,140.62,259.38V272a33.59,33.59,0,0,0,33.59,33.59h37.22" />
    <path class="cls-1"
        d="M319.39,305.6v36.87A25.53,25.53,0,0,1,293.86,368H218.14a25.53,25.53,0,0,1-25.53-25.53V305.6" />
    <line class="cls-1" x1="230.5" x2="230.5" y1="368" y2="332.01" />
    <line class="cls-1" x1="281.5" x2="281.5" y1="368" y2="332.01" />
    <path class="cls-2"
        d="M172.47,251.66c0-26.23,14.73-47.56,33-48.06,18.88-.52,34.33,22.06,34.33,49h0c0,8.85-5,16-11.22,16H183.69c-6.19,0-11.22-7.17-11.22-16Z" />
    <path class="cls-2"
        d="M272.18,251.66c0-26.23,14.72-47.56,33-48.06,18.88-.52,34.34,22.06,34.34,49h0c0,8.85-5,16-11.22,16H283.4c-6.2,0-11.22-7.17-11.22-16Z" />
</svg>